<svg id="svg" version="1.1" xmlns="http://www.w3.org/2000/svg" xmlns:xlink="http://www.w3.org/1999/xlink" width="400" height="127.08333333333333" viewBox="0, 0, 400,127.08333333333333"><g id="svgg"><path id="path0" d="M180.500 1.845 C 173.684 2.701,167.853 4.222,163.567 6.262 C 163.099 6.485,162.670 6.667,162.614 6.667 C 162.506 6.667,160.298 7.751,159.000 8.442 C 158.342 8.792,157.569 9.229,156.417 9.901 C 156.233 10.008,155.643 10.393,155.104 10.756 C 154.565 11.119,154.003 11.493,153.854 11.586 C 152.742 12.282,151.667 13.071,151.667 13.190 C 151.667 13.269,151.592 13.333,151.500 13.333 C 150.361 13.333,142.878 20.887,139.126 25.824 C 138.600 26.517,138.052 27.233,137.908 27.417 C 137.765 27.600,137.205 28.350,136.663 29.083 C 136.122 29.817,135.618 30.492,135.544 30.583 C 135.212 30.993,132.535 34.817,132.159 35.417 C 131.451 36.548,131.347 36.726,130.943 37.500 C 130.728 37.912,130.433 38.475,130.287 38.750 C 129.523 40.195,128.495 42.620,127.568 45.167 C 127.351 45.762,127.096 46.400,127.001 46.583 C 126.787 46.995,126.201 48.938,125.919 50.167 C 125.803 50.671,125.556 51.683,125.369 52.417 C 125.029 53.753,124.869 54.528,124.390 57.167 C 123.942 59.639,124.016 70.777,124.500 73.583 C 124.705 74.775,124.931 76.125,125.001 76.583 C 125.252 78.218,126.392 82.342,127.028 83.917 C 127.213 84.375,127.423 84.975,127.493 85.250 C 127.563 85.525,127.789 86.125,127.994 86.583 C 128.199 87.042,128.534 87.792,128.739 88.250 C 129.579 90.135,130.511 91.987,130.667 92.083 C 130.758 92.140,130.833 92.288,130.833 92.413 C 130.833 92.821,134.240 98.244,134.776 98.688 C 134.899 98.790,135.000 98.943,135.000 99.026 C 135.000 99.282,138.913 103.965,139.923 104.917 C 140.214 105.192,141.036 105.942,141.748 106.583 C 142.460 107.225,143.164 107.867,143.313 108.010 C 143.893 108.568,146.171 110.333,146.311 110.333 C 146.393 110.333,146.561 110.456,146.685 110.606 C 146.881 110.842,147.481 111.281,148.482 111.921 C 149.082 112.305,151.123 113.597,151.426 113.784 C 154.830 115.893,159.503 117.947,163.417 119.055 C 166.869 120.032,167.624 120.227,168.417 120.343 C 168.875 120.410,170.037 120.616,171.000 120.801 C 177.845 122.119,186.946 121.748,193.417 119.888 C 194.242 119.650,195.000 119.435,195.102 119.409 C 195.267 119.367,196.667 117.408,196.667 117.220 C 196.667 117.178,196.836 116.906,197.042 116.614 C 197.442 116.049,197.670 115.700,198.130 114.948 C 198.288 114.690,198.942 113.667,199.583 112.675 C 200.225 111.684,200.844 110.714,200.958 110.522 C 201.119 110.252,201.167 107.906,201.167 100.336 L 201.167 90.500 222.458 90.493 L 243.750 90.487 244.375 89.416 C 244.719 88.827,245.000 88.268,245.000 88.173 C 245.000 88.078,245.058 88.000,245.129 88.000 C 245.200 88.000,245.404 87.719,245.583 87.375 C 245.762 87.031,246.079 86.518,246.287 86.234 C 246.496 85.951,246.667 85.658,246.667 85.583 C 246.667 85.509,246.854 85.202,247.083 84.902 C 247.313 84.601,247.500 84.311,247.500 84.258 C 247.500 84.161,247.993 83.353,248.806 82.118 L 249.221 81.487 246.904 79.118 C 245.630 77.816,241.310 73.450,237.303 69.417 C 233.297 65.383,229.677 61.727,229.257 61.292 L 228.495 60.500 227.289 60.497 C 225.357 60.493,225.319 60.573,229.122 56.729 C 239.535 46.207,243.826 41.838,244.420 41.153 C 245.367 40.063,245.727 39.621,245.917 39.315 C 246.008 39.167,246.421 38.597,246.833 38.047 C 247.246 37.498,247.733 36.839,247.917 36.583 C 248.100 36.328,248.443 35.886,248.678 35.601 C 249.342 34.800,250.500 33.128,250.500 32.973 C 250.500 32.896,239.400 32.833,225.833 32.833 L 201.167 32.833 201.167 18.535 L 201.167 4.236 200.292 3.809 C 199.347 3.348,196.328 2.648,193.917 2.331 C 193.092 2.223,191.667 2.031,190.750 1.906 C 188.919 1.655,182.326 1.616,180.500 1.845 M192.048 3.426 C 196.361 3.906,199.013 4.572,199.269 5.239 C 199.315 5.360,198.914 6.087,198.378 6.854 C 197.842 7.622,197.125 8.700,196.785 9.250 C 196.445 9.800,195.998 10.455,195.792 10.706 L 195.417 11.162 192.917 10.671 C 190.465 10.191,185.465 9.613,182.000 9.410 C 169.907 8.701,155.961 13.084,146.250 20.646 C 145.608 21.146,144.973 21.636,144.838 21.736 C 144.309 22.126,146.707 19.349,147.860 18.237 C 159.220 7.279,176.035 1.643,192.048 3.426 M10.466 5.520 C 9.889 6.264,9.342 6.993,9.250 7.141 C 9.158 7.288,9.002 7.486,8.902 7.579 C 8.802 7.673,8.352 8.237,7.902 8.833 C 7.452 9.429,6.971 10.005,6.833 10.112 C 6.481 10.388,6.556 12.103,7.068 15.500 C 7.455 18.069,7.757 20.176,8.754 27.250 C 9.213 30.515,9.844 34.981,10.436 39.167 C 10.664 40.771,11.029 43.358,11.249 44.917 C 11.469 46.475,11.836 49.063,12.065 50.667 C 12.293 52.271,12.677 55.008,12.917 56.750 C 13.157 58.492,13.531 61.154,13.749 62.667 C 13.967 64.179,14.339 66.804,14.577 68.500 C 14.815 70.196,15.191 72.858,15.413 74.417 C 15.635 75.975,16.012 78.637,16.250 80.333 C 16.488 82.029,16.864 84.692,17.085 86.250 C 17.639 90.169,18.283 94.723,18.756 98.083 C 19.816 105.610,20.053 107.287,20.427 109.917 C 20.649 111.475,21.037 114.156,21.288 115.875 L 21.745 119.000 31.581 119.000 C 36.991 119.000,45.973 119.050,51.542 119.111 C 59.195 119.194,61.667 119.174,61.667 119.027 C 61.667 118.921,61.798 118.694,61.958 118.523 C 62.119 118.353,62.663 117.636,63.167 116.930 C 64.056 115.685,65.848 113.254,66.125 112.917 C 66.201 112.825,66.632 112.225,67.084 111.583 C 67.535 110.942,67.993 110.361,68.100 110.294 C 68.391 110.111,69.168 106.182,69.164 104.917 C 69.163 104.642,69.349 103.179,69.577 101.667 C 69.805 100.154,70.183 97.492,70.417 95.750 C 70.652 94.008,71.031 91.308,71.259 89.750 C 71.488 88.192,71.672 86.729,71.669 86.500 C 71.665 86.271,71.849 84.846,72.077 83.333 C 72.305 81.821,72.683 79.158,72.916 77.417 C 73.150 75.675,73.497 73.200,73.688 71.917 C 73.879 70.633,74.095 68.983,74.167 68.250 C 74.239 67.517,74.453 65.867,74.644 64.583 C 74.834 63.300,75.182 60.825,75.418 59.083 C 75.654 57.342,76.027 54.604,76.248 53.000 C 76.468 51.396,76.842 48.658,77.079 46.917 C 77.316 45.175,77.697 42.475,77.926 40.917 C 78.155 39.358,78.339 37.896,78.335 37.667 C 78.332 37.438,78.516 36.012,78.745 34.500 C 78.973 32.987,79.352 30.325,79.586 28.583 C 79.821 26.842,80.199 24.142,80.427 22.583 C 80.655 21.025,80.839 19.563,80.835 19.333 C 80.832 19.104,81.016 17.679,81.244 16.167 C 81.863 12.061,82.833 4.860,82.833 4.366 C 82.833 4.213,79.655 4.167,69.083 4.167 C 61.521 4.167,55.333 4.224,55.333 4.295 C 55.333 4.365,55.052 4.764,54.708 5.181 C 54.365 5.597,53.858 6.223,53.583 6.571 C 52.368 8.109,51.917 8.673,51.206 9.546 C 50.477 10.439,50.625 9.612,49.573 18.667 C 49.344 20.637,48.971 23.712,48.744 25.500 C 48.517 27.287,48.333 28.975,48.337 29.250 C 48.340 29.525,48.154 31.212,47.925 33.000 C 47.695 34.787,47.316 37.900,47.083 39.917 C 46.849 41.933,46.476 45.083,46.253 46.917 C 46.030 48.750,45.804 50.813,45.750 51.500 C 45.555 53.965,45.419 54.108,45.191 52.083 C 45.077 51.075,44.806 48.862,44.587 47.167 C 44.061 43.082,43.460 38.335,42.084 27.417 C 40.394 14.002,40.070 11.465,39.556 7.625 L 39.094 4.167 25.304 4.167 L 11.515 4.167 10.466 5.520 M90.314 4.707 C 90.107 5.006,89.746 5.486,89.511 5.774 C 89.276 6.061,88.948 6.474,88.782 6.690 C 88.616 6.906,87.941 7.784,87.282 8.640 C 86.623 9.496,85.998 10.358,85.894 10.557 C 85.754 10.822,85.674 25.100,85.588 64.958 L 85.471 119.000 97.950 119.000 L 110.428 119.000 110.743 118.458 C 110.916 118.160,111.106 117.879,111.165 117.833 C 111.273 117.749,112.275 116.318,112.583 115.807 C 112.675 115.656,113.200 114.884,113.750 114.092 C 114.300 113.301,114.825 112.525,114.917 112.368 C 115.008 112.212,115.123 112.046,115.172 112.000 C 115.220 111.954,115.540 111.522,115.882 111.039 L 116.503 110.161 116.377 57.206 L 116.250 4.250 103.470 4.207 L 90.691 4.165 90.314 4.707 M284.937 4.338 C 280.220 4.787,277.354 5.891,274.083 8.520 C 272.784 9.564,266.683 15.709,265.912 16.750 C 265.641 17.117,265.374 17.454,265.320 17.500 C 264.567 18.140,262.851 21.911,262.249 24.250 C 261.625 26.672,261.624 26.714,261.753 38.692 L 261.876 50.167 272.918 50.167 L 283.959 50.167 284.747 49.208 C 285.181 48.681,285.952 47.782,286.460 47.209 C 290.727 42.405,290.492 43.098,290.496 35.292 C 290.499 31.248,290.560 28.833,290.661 28.833 C 290.750 28.833,291.085 29.096,291.407 29.418 C 292.531 30.543,292.511 30.247,292.461 44.845 L 292.417 57.917 292.042 58.656 C 291.835 59.063,291.667 59.494,291.667 59.615 C 291.667 59.735,291.609 59.833,291.539 59.833 C 291.469 59.833,291.226 60.138,290.998 60.509 C 290.434 61.429,289.666 61.991,287.417 63.129 C 287.142 63.268,286.804 63.474,286.667 63.586 C 286.529 63.698,285.817 64.111,285.083 64.505 C 284.350 64.899,283.478 65.378,283.146 65.569 C 282.813 65.760,281.838 66.313,280.979 66.797 C 280.120 67.281,279.304 67.744,279.167 67.826 C 278.379 68.294,275.971 69.600,274.120 70.564 C 270.522 72.437,268.868 73.747,266.732 76.417 C 266.145 77.150,265.600 77.831,265.519 77.930 C 265.160 78.373,263.843 80.590,263.497 81.333 C 263.433 81.471,263.267 81.808,263.128 82.083 C 262.555 83.219,261.684 86.182,261.513 87.583 C 261.366 88.781,261.011 109.602,261.002 117.542 L 261.000 119.167 288.417 119.167 C 306.372 119.167,315.833 119.110,315.833 119.002 C 315.833 118.911,315.941 118.705,316.072 118.544 C 316.603 117.893,317.440 116.735,317.551 116.500 C 317.616 116.362,318.082 115.688,318.586 115.000 C 319.755 113.407,321.368 111.066,321.581 110.652 C 321.672 110.477,321.803 110.333,321.873 110.333 C 321.943 110.333,322.000 106.358,322.000 101.500 L 322.000 92.667 305.814 92.667 L 289.628 92.667 289.726 91.625 C 289.780 91.052,289.872 89.908,289.931 89.083 C 290.117 86.492,291.017 85.328,294.167 83.602 C 294.881 83.210,295.384 82.924,298.250 81.273 C 299.980 80.277,301.188 79.603,302.667 78.809 C 302.987 78.636,303.625 78.277,304.083 78.010 C 304.542 77.743,305.254 77.343,305.667 77.120 C 310.475 74.524,312.856 72.481,314.917 69.183 C 315.008 69.037,315.123 68.879,315.171 68.833 C 315.219 68.787,315.519 68.413,315.838 68.001 C 316.795 66.762,316.905 66.630,317.208 66.356 C 317.369 66.211,317.500 66.024,317.500 65.940 C 317.500 65.857,317.669 65.615,317.875 65.403 C 318.884 64.368,319.944 62.852,320.605 61.500 C 321.261 60.156,321.561 59.416,321.679 58.850 C 321.747 58.520,321.929 57.688,322.081 57.000 C 322.330 55.882,322.362 53.925,322.388 38.500 L 322.417 21.250 321.964 19.167 C 320.094 10.556,314.853 5.305,307.171 4.343 C 305.565 4.142,287.040 4.138,284.937 4.338 M353.917 4.341 C 351.672 4.636,348.783 5.674,348.178 6.403 C 348.058 6.548,347.891 6.667,347.808 6.667 C 347.473 6.667,341.892 11.236,340.401 12.732 C 339.088 14.048,335.833 18.269,335.833 18.655 C 335.833 18.740,335.737 18.909,335.619 19.030 C 335.502 19.151,335.183 19.617,334.911 20.065 C 334.639 20.513,334.246 21.151,334.038 21.482 C 333.830 21.813,333.571 22.271,333.464 22.500 C 333.357 22.729,333.175 23.031,333.060 23.170 C 332.737 23.561,331.836 25.762,331.356 27.333 L 330.923 28.750 330.871 64.250 C 330.820 100.225,330.829 100.856,331.433 103.667 C 332.521 108.723,336.316 113.928,340.583 116.216 C 345.796 119.012,345.674 118.994,360.000 118.994 C 374.636 118.994,375.882 118.805,380.142 115.934 C 380.632 115.604,381.068 115.333,381.110 115.333 C 381.716 115.333,387.500 109.460,387.500 108.845 C 387.500 108.747,387.557 108.667,387.627 108.667 C 387.696 108.667,388.164 108.123,388.665 107.458 C 389.167 106.794,389.616 106.212,389.664 106.167 C 390.558 105.311,393.778 99.238,394.151 97.703 C 394.234 97.362,394.459 96.491,394.651 95.766 C 395.050 94.259,394.963 98.114,395.512 57.583 C 396.010 20.878,395.951 18.075,394.608 15.138 C 394.468 14.833,394.240 14.321,394.100 14.000 C 393.701 13.085,392.892 11.770,392.687 11.701 C 392.584 11.667,392.500 11.548,392.500 11.437 C 392.500 11.326,392.051 10.789,391.503 10.243 C 388.403 7.156,384.352 4.880,381.000 4.343 C 379.725 4.138,355.469 4.136,353.917 4.341 M37.000 5.462 C 37.000 5.533,36.116 6.715,35.035 8.087 L 33.071 10.583 20.753 10.626 C 13.978 10.650,8.381 10.612,8.315 10.543 C 8.249 10.473,9.099 9.273,10.205 7.875 L 12.216 5.333 24.608 5.333 C 31.424 5.333,37.000 5.391,37.000 5.462 M81.217 5.557 C 81.143 5.679,80.258 6.842,79.250 8.139 L 77.417 10.499 64.948 10.499 C 55.020 10.500,52.505 10.458,52.602 10.292 C 52.668 10.177,53.554 9.015,54.570 7.708 L 56.417 5.333 68.883 5.333 C 79.255 5.333,81.327 5.371,81.217 5.557 M114.159 5.458 C 114.154 5.527,113.266 6.708,112.185 8.083 L 110.219 10.583 98.693 10.626 C 92.353 10.650,87.167 10.612,87.168 10.543 C 87.170 10.410,90.283 6.354,90.879 5.708 L 91.225 5.333 102.696 5.333 C 109.005 5.333,114.163 5.390,114.159 5.458 M300.333 5.497 C 309.764 5.789,312.390 6.524,315.472 9.734 L 316.521 10.827 314.469 13.507 C 313.340 14.982,312.322 16.311,312.207 16.461 C 312.020 16.705,311.923 16.663,311.290 16.056 C 308.954 13.818,305.033 11.926,301.476 11.320 C 298.245 10.768,277.646 10.993,274.939 11.609 C 274.017 11.818,273.709 11.830,273.355 11.667 L 272.917 11.465 274.068 10.392 C 276.104 8.495,278.490 7.082,281.417 6.040 C 283.211 5.400,290.476 5.192,300.333 5.497 M378.750 5.506 C 382.124 5.888,384.684 6.882,387.631 8.956 C 388.512 9.576,389.305 10.133,389.393 10.193 C 389.482 10.253,388.360 11.840,386.902 13.719 C 384.626 16.651,384.212 17.108,383.979 16.943 C 383.830 16.837,383.064 16.223,382.277 15.579 C 377.386 11.576,375.353 11.167,360.333 11.167 C 350.438 11.167,348.226 11.269,345.542 11.851 C 343.419 12.311,343.412 12.283,345.236 10.539 C 348.656 7.270,351.085 5.989,354.750 5.524 C 356.410 5.313,376.910 5.298,378.750 5.506 M184.333 10.336 C 186.758 10.523,189.836 11.010,192.375 11.608 L 194.167 12.029 194.167 25.588 L 194.167 39.146 192.458 38.332 C 182.773 33.715,170.995 34.830,162.404 41.176 C 147.912 51.882,146.392 73.859,159.266 86.545 C 168.281 95.429,181.027 97.407,193.292 91.827 L 194.000 91.504 194.000 104.899 L 194.000 118.294 193.625 118.384 C 157.876 126.891,125.127 101.400,125.170 65.101 C 125.209 32.831,152.199 7.847,184.333 10.336 M76.167 12.082 C 76.167 12.311,74.328 25.379,72.081 41.124 C 62.639 107.277,61.167 117.610,61.167 117.719 C 61.167 117.782,52.579 117.833,42.083 117.833 C 26.929 117.833,23.000 117.790,22.998 117.625 C 22.997 117.510,21.539 107.223,19.757 94.764 L 16.517 72.112 16.945 71.597 C 17.180 71.315,18.545 69.846,19.977 68.333 C 21.410 66.821,23.070 65.060,23.666 64.419 C 25.433 62.523,26.786 61.080,29.609 58.083 C 31.654 55.913,36.208 51.032,37.685 49.428 C 37.974 49.114,38.079 49.700,39.167 57.667 C 39.449 59.729,39.823 62.429,40.000 63.667 C 40.177 64.904,40.553 67.604,40.836 69.667 C 42.271 80.124,42.711 83.178,42.773 83.115 C 42.827 83.062,43.305 79.494,43.750 75.833 C 43.878 74.779,44.402 70.617,44.914 66.583 C 46.994 50.194,47.694 44.658,47.914 42.833 C 48.041 41.779,48.233 40.236,48.340 39.405 L 48.536 37.893 50.464 35.822 C 51.524 34.682,53.527 32.550,54.915 31.083 C 56.302 29.617,59.640 26.054,62.333 23.167 C 65.026 20.279,67.841 17.279,68.590 16.500 C 69.339 15.721,70.656 14.317,71.518 13.381 L 73.083 11.678 74.625 11.672 C 76.159 11.667,76.167 11.669,76.167 12.082 M109.557 21.875 C 109.618 27.490,109.668 51.377,109.667 74.958 L 109.666 117.833 98.083 117.833 L 86.500 117.833 86.500 64.750 L 86.500 11.667 97.973 11.667 L 109.446 11.667 109.557 21.875 M298.167 12.087 C 306.867 12.631,312.034 16.226,314.115 23.184 L 314.583 24.750 314.583 44.750 C 314.583 68.564,314.717 67.293,311.833 70.917 C 310.370 72.755,310.269 72.822,300.833 78.120 C 281.975 88.708,282.771 87.884,282.553 97.042 L 282.454 101.167 298.560 101.167 L 314.667 101.167 314.667 109.500 L 314.667 117.833 288.500 117.833 L 262.333 117.833 262.333 103.403 C 262.333 89.422,262.344 88.931,262.673 87.640 C 264.076 82.147,268.412 76.133,273.250 72.972 C 273.940 72.521,280.358 68.889,286.750 65.332 C 291.740 62.555,292.753 61.781,293.471 60.198 C 293.810 59.452,293.993 34.671,293.678 32.288 C 293.177 28.503,292.044 27.605,287.884 27.695 L 285.351 27.750 284.740 28.333 C 284.404 28.654,283.979 29.254,283.795 29.667 C 282.946 31.573,282.949 31.544,282.877 40.723 L 282.809 49.362 272.918 49.306 C 267.478 49.275,262.998 49.212,262.963 49.167 C 262.678 48.801,263.150 26.802,263.471 25.455 C 265.314 17.738,269.572 13.527,276.750 12.323 C 277.821 12.143,294.236 11.814,295.917 11.938 C 296.283 11.965,297.296 12.032,298.167 12.087 M373.833 12.649 C 380.720 14.783,386.801 22.105,388.245 30.000 C 388.670 32.320,388.543 102.302,388.112 103.750 C 386.084 110.561,379.177 116.421,371.667 117.703 C 369.503 118.073,350.341 118.003,348.454 117.619 C 340.835 116.067,334.425 110.491,332.457 103.704 L 332.083 102.417 332.083 66.417 L 332.083 30.417 332.541 28.724 C 334.714 20.678,340.556 14.259,347.250 12.563 L 348.750 12.182 360.667 12.222 L 372.583 12.261 373.833 12.649 M356.059 27.832 C 355.490 28.062,354.869 29.014,354.590 30.083 C 354.133 31.838,354.208 97.767,354.668 98.669 C 355.749 100.789,356.254 101.000,360.250 101.000 C 363.902 101.000,364.039 100.967,365.045 99.854 C 366.280 98.487,366.175 101.969,366.127 63.964 L 366.083 29.750 365.619 28.959 C 364.875 27.695,364.751 27.665,360.300 27.677 C 358.164 27.683,356.256 27.753,356.059 27.832 M364.410 28.860 C 365.280 29.257,365.250 28.104,365.250 61.583 L 365.250 92.750 364.134 92.750 C 362.781 92.750,362.102 92.229,361.313 90.583 L 360.834 89.583 360.833 59.125 L 360.833 28.667 362.409 28.667 C 363.275 28.667,364.176 28.754,364.410 28.860 M245.569 36.833 L 243.298 39.667 219.879 39.667 C 201.171 39.667,196.491 39.625,196.615 39.458 C 196.701 39.344,197.704 38.069,198.844 36.627 L 200.917 34.003 224.378 34.002 L 247.839 34.000 245.569 36.833 M183.833 36.942 C 184.612 37.080,185.674 37.256,186.191 37.332 C 187.946 37.589,191.166 38.710,193.292 39.803 L 194.333 40.338 194.333 62.573 L 194.333 84.808 193.458 85.073 C 189.592 86.243,182.159 86.229,177.917 85.044 C 171.922 83.369,165.081 78.562,162.417 74.153 C 162.239 73.859,161.798 73.183,161.339 72.500 C 160.782 71.673,159.791 69.571,158.862 67.250 C 156.887 62.316,156.871 52.956,158.829 48.615 C 159.002 48.231,159.184 47.804,159.233 47.667 C 159.330 47.395,160.054 46.173,160.576 45.400 C 161.356 44.243,162.327 43.215,163.495 42.308 C 164.185 41.772,164.926 41.196,165.141 41.027 C 167.040 39.538,171.974 37.794,176.500 37.012 C 177.554 36.830,178.604 36.646,178.833 36.603 C 179.499 36.479,182.291 36.669,183.833 36.942 M156.997 49.759 C 152.922 64.802,160.589 79.956,175.191 85.722 C 179.713 87.508,186.795 88.030,191.959 86.958 C 193.175 86.706,194.243 86.500,194.334 86.500 C 194.433 86.500,194.500 87.188,194.500 88.210 L 194.500 89.919 193.784 90.351 C 181.354 97.859,163.310 93.025,155.612 80.124 C 149.905 70.560,150.285 57.260,156.503 48.942 C 157.576 47.506,157.598 47.541,156.997 49.759 M226.546 61.542 C 224.823 63.765,222.401 66.779,222.263 66.872 C 221.986 67.061,196.704 67.029,196.588 66.840 C 196.533 66.752,197.025 66.002,197.679 65.174 L 198.870 63.667 210.672 63.667 L 222.475 63.667 223.512 62.500 L 224.549 61.333 225.628 61.333 C 226.467 61.333,226.671 61.380,226.546 61.542 M223.169 69.879 C 224.225 70.908,229.043 75.565,233.877 80.228 C 238.712 84.891,242.667 88.735,242.667 88.770 C 242.667 88.805,232.204 88.833,219.417 88.833 L 196.167 88.833 196.167 78.417 L 196.167 68.000 208.708 68.004 L 221.250 68.008 223.169 69.879 M319.500 93.924 C 319.500 93.975,318.397 95.362,317.049 97.008 L 314.599 100.000 299.698 100.000 C 286.079 100.000,284.807 99.977,284.900 99.732 C 284.957 99.585,286.034 98.200,287.293 96.656 L 289.583 93.848 304.542 93.840 C 312.769 93.837,319.500 93.874,319.500 93.924 " stroke="none" fill="#11142b" fill-rule="evenodd"></path><path id="path1" d="M71.518 13.381 C 70.656 14.317,69.339 15.721,68.590 16.500 C 67.841 17.279,65.026 20.279,62.333 23.167 C 59.640 26.054,56.302 29.617,54.915 31.083 C 53.527 32.550,51.524 34.682,50.464 35.822 L 48.536 37.893 48.340 39.405 C 48.233 40.236,48.041 41.779,47.914 42.833 C 47.694 44.658,46.994 50.194,44.914 66.583 C 44.402 70.617,43.878 74.779,43.750 75.833 C 43.305 79.494,42.827 83.062,42.773 83.115 C 42.711 83.178,42.271 80.124,40.836 69.667 C 40.553 67.604,40.177 64.904,40.000 63.667 C 39.823 62.429,39.449 59.729,39.167 57.667 C 38.079 49.700,37.974 49.114,37.685 49.428 C 36.208 51.032,31.654 55.913,29.609 58.083 C 26.786 61.080,25.433 62.523,23.666 64.419 C 23.070 65.060,21.410 66.821,19.977 68.333 C 18.545 69.846,17.180 71.315,16.945 71.597 L 16.517 72.111 19.675 94.264 C 23.409 120.449,22.861 117.441,23.725 116.481 C 24.105 116.058,27.642 112.277,31.583 108.079 C 35.525 103.880,39.982 99.126,41.488 97.514 C 42.994 95.902,45.287 93.458,46.584 92.083 C 47.881 90.708,50.694 87.708,52.837 85.417 C 54.979 83.125,57.236 80.725,57.852 80.083 C 58.469 79.442,59.185 78.679,59.445 78.389 C 59.704 78.098,61.717 75.940,63.917 73.592 C 66.117 71.245,67.975 69.157,68.046 68.953 C 68.196 68.525,76.167 12.702,76.167 12.081 C 76.167 11.669,76.158 11.667,74.625 11.672 L 73.083 11.678 71.518 13.381 M86.500 30.611 C 86.500 41.031,86.524 49.524,86.554 49.486 C 86.697 49.302,94.235 41.240,95.424 40.000 C 96.171 39.221,98.912 36.301,101.515 33.512 C 104.118 30.722,106.976 27.685,107.867 26.762 L 109.487 25.083 109.493 18.375 L 109.500 11.667 98.000 11.667 L 86.500 11.667 86.500 30.611 M196.167 78.417 L 196.167 88.833 219.417 88.833 C 232.204 88.833,242.667 88.805,242.667 88.770 C 242.667 88.735,238.712 84.891,233.877 80.228 C 229.043 75.565,224.225 70.908,223.169 69.879 L 221.250 68.008 208.708 68.004 L 196.167 68.000 196.167 78.417 M23.000 117.708 C 23.000 117.777,31.606 117.815,42.125 117.794 C 52.644 117.772,58.175 117.734,54.417 117.710 C 36.419 117.596,23.000 117.595,23.000 117.708 " stroke="none" fill="#e12765" fill-rule="evenodd"></path><path id="path2" d="M176.917 10.266 C 168.266 10.937,161.727 12.713,154.894 16.250 C 129.305 29.492,118.396 59.981,129.582 86.986 C 131.507 91.633,136.641 99.905,137.219 99.293 C 137.328 99.178,139.025 97.358,140.990 95.250 C 144.338 91.659,145.175 90.767,148.586 87.162 C 153.021 82.477,154.500 80.855,154.500 80.681 C 154.500 80.573,154.205 79.944,153.845 79.284 C 146.852 66.470,150.831 49.349,162.778 40.852 C 171.498 34.649,183.476 33.675,192.820 38.410 C 194.292 39.156,194.174 40.335,194.126 25.390 L 194.083 12.105 192.917 11.807 C 188.405 10.657,181.037 9.947,176.917 10.266 M106.802 27.875 C 105.387 29.365,102.553 32.383,100.504 34.583 C 98.455 36.783,96.204 39.183,95.501 39.917 C 94.798 40.650,92.486 43.109,90.362 45.380 L 86.500 49.511 86.500 83.672 L 86.500 117.833 98.000 117.833 L 109.500 117.833 109.500 71.500 C 109.500 46.017,109.472 25.167,109.438 25.167 C 109.404 25.167,108.218 26.385,106.802 27.875 M63.904 73.598 C 61.711 75.943,59.704 78.098,59.445 78.389 C 59.185 78.679,58.469 79.442,57.852 80.083 C 57.236 80.725,54.979 83.125,52.837 85.417 C 50.694 87.708,47.881 90.708,46.584 92.083 C 45.287 93.458,42.994 95.902,41.488 97.514 C 39.982 99.126,35.525 103.880,31.583 108.078 C 23.085 117.129,22.948 117.281,23.082 117.498 C 23.151 117.610,29.541 117.667,42.177 117.667 L 61.167 117.667 61.167 117.252 C 61.167 117.025,61.313 115.881,61.493 114.711 C 61.871 112.242,62.410 108.505,62.750 106.000 C 62.880 105.037,63.139 103.200,63.325 101.917 C 63.510 100.633,63.814 98.533,64.000 97.250 C 64.186 95.967,64.490 93.867,64.675 92.583 C 64.861 91.300,65.120 89.462,65.250 88.500 C 65.506 86.613,65.992 83.214,66.500 79.750 C 67.460 73.211,67.978 69.440,67.924 69.376 C 67.906 69.353,66.096 71.253,63.904 73.598 " stroke="none" fill="#fb9d23" fill-rule="evenodd"></path><path id="path3" d="M184.549 3.124 C 185.171 3.156,186.146 3.156,186.715 3.123 C 187.284 3.091,186.775 3.064,185.583 3.065 C 184.392 3.065,183.926 3.092,184.549 3.124 M11.979 5.625 C 11.775 5.884,11.780 5.893,12.020 5.706 C 12.232 5.540,14.894 5.505,24.645 5.540 C 31.440 5.564,37.000 5.527,37.000 5.458 C 37.000 5.152,12.221 5.317,11.979 5.625 M56.276 5.458 C 56.206 5.572,65.196 5.570,76.917 5.455 C 79.392 5.431,75.777 5.394,68.885 5.372 C 61.992 5.351,56.318 5.390,56.276 5.458 M102.551 5.458 C 111.127 5.491,113.988 5.551,113.900 5.694 C 113.827 5.812,113.855 5.839,113.974 5.766 C 114.607 5.375,113.471 5.336,102.625 5.374 L 91.083 5.414 102.551 5.458 M290.552 5.458 C 291.818 5.486,293.843 5.486,295.052 5.458 C 296.261 5.429,295.225 5.406,292.750 5.406 C 290.275 5.406,289.286 5.430,290.552 5.458 M356.631 5.456 C 357.115 5.490,357.865 5.490,358.297 5.456 C 358.730 5.421,358.333 5.394,357.417 5.394 C 356.500 5.395,356.146 5.423,356.631 5.456 M362.136 5.458 C 363.815 5.485,366.515 5.485,368.136 5.458 C 369.757 5.431,368.383 5.409,365.083 5.409 C 361.783 5.409,360.457 5.431,362.136 5.458 M375.464 5.456 C 375.948 5.490,376.698 5.490,377.131 5.456 C 377.563 5.421,377.167 5.394,376.250 5.394 C 375.333 5.395,374.980 5.423,375.464 5.456 M283.627 5.618 C 283.834 5.658,284.134 5.656,284.294 5.615 C 284.453 5.573,284.283 5.540,283.917 5.542 C 283.550 5.544,283.420 5.578,283.627 5.618 M302.125 5.621 C 302.423 5.658,302.910 5.658,303.208 5.621 C 303.506 5.584,303.262 5.553,302.667 5.553 C 302.071 5.553,301.827 5.584,302.125 5.621 M177.542 9.453 C 177.794 9.491,178.206 9.491,178.458 9.453 C 178.710 9.415,178.504 9.383,178.000 9.383 C 177.496 9.383,177.290 9.415,177.542 9.453 M182.627 9.451 C 182.834 9.491,183.134 9.490,183.294 9.448 C 183.453 9.406,183.283 9.374,182.917 9.375 C 182.550 9.377,182.420 9.411,182.627 9.451 M174.292 9.621 C 174.590 9.658,175.077 9.658,175.375 9.621 C 175.673 9.584,175.429 9.553,174.833 9.553 C 174.237 9.553,173.994 9.584,174.292 9.621 M184.542 9.615 C 184.702 9.657,184.965 9.657,185.125 9.615 C 185.285 9.573,185.154 9.539,184.833 9.539 C 184.512 9.539,184.381 9.573,184.542 9.615 M344.953 10.797 C 343.730 12.027,343.687 12.095,344.124 12.112 C 344.398 12.122,344.457 12.097,344.270 12.048 C 344.013 11.982,344.174 11.750,345.183 10.734 C 345.857 10.055,346.371 9.500,346.325 9.500 C 346.280 9.500,345.662 10.084,344.953 10.797 M315.333 9.719 C 315.333 9.748,315.577 9.991,315.875 10.260 L 316.417 10.750 315.927 10.208 C 315.471 9.703,315.333 9.590,315.333 9.719 M273.744 10.708 L 272.917 11.583 273.792 10.756 C 274.273 10.301,274.667 9.908,274.667 9.881 C 274.667 9.757,274.512 9.895,273.744 10.708 M8.249 10.335 C 8.051 10.655,8.652 10.669,20.833 10.625 L 33.083 10.581 20.698 10.541 C 12.495 10.514,8.348 10.444,8.417 10.333 C 8.473 10.242,8.482 10.167,8.436 10.167 C 8.391 10.167,8.306 10.242,8.249 10.335 M176.794 10.285 C 177.001 10.324,177.301 10.323,177.460 10.281 C 177.620 10.239,177.450 10.207,177.083 10.209 C 176.717 10.211,176.586 10.245,176.794 10.285 M182.127 10.285 C 182.334 10.324,182.634 10.323,182.794 10.281 C 182.953 10.239,182.783 10.207,182.417 10.209 C 182.050 10.211,181.920 10.245,182.127 10.285 M87.167 10.542 C 87.167 10.610,92.360 10.649,98.708 10.628 C 105.056 10.607,108.412 10.569,106.167 10.545 C 95.571 10.430,87.167 10.428,87.167 10.542 M184.708 10.448 C 184.869 10.490,185.131 10.490,185.292 10.448 C 185.452 10.406,185.321 10.372,185.000 10.372 C 184.679 10.372,184.548 10.406,184.708 10.448 M291.384 10.958 C 292.374 10.987,293.949 10.987,294.884 10.958 C 295.819 10.928,295.008 10.904,293.083 10.904 C 291.158 10.904,290.394 10.928,291.384 10.958 M278.961 11.121 C 279.261 11.158,279.711 11.157,279.961 11.119 C 280.212 11.081,279.967 11.051,279.417 11.052 C 278.867 11.053,278.662 11.084,278.961 11.121 M298.792 11.118 C 298.998 11.157,299.335 11.157,299.542 11.118 C 299.748 11.078,299.579 11.045,299.167 11.045 C 298.754 11.045,298.585 11.078,298.792 11.118 M355.708 11.125 C 358.252 11.151,362.415 11.151,364.958 11.125 C 367.502 11.099,365.421 11.078,360.333 11.078 C 355.246 11.078,353.165 11.099,355.708 11.125 M276.708 11.282 C 276.869 11.323,277.131 11.323,277.292 11.282 C 277.452 11.240,277.321 11.205,277.000 11.205 C 276.679 11.205,276.548 11.240,276.708 11.282 M349.127 11.285 C 349.334 11.324,349.634 11.323,349.794 11.281 C 349.953 11.239,349.783 11.207,349.417 11.209 C 349.050 11.211,348.920 11.245,349.127 11.285 M370.960 11.285 C 371.168 11.324,371.468 11.323,371.627 11.281 C 371.786 11.239,371.617 11.207,371.250 11.209 C 370.883 11.211,370.753 11.245,370.960 11.285 M283.781 12.125 C 285.356 12.152,287.981 12.152,289.614 12.125 C 291.247 12.097,289.958 12.075,286.750 12.075 C 283.542 12.075,282.206 12.097,283.781 12.125 M297.460 12.118 C 297.668 12.158,297.968 12.156,298.127 12.115 C 298.286 12.073,298.117 12.040,297.750 12.042 C 297.383 12.044,297.253 12.078,297.460 12.118 M311.369 16.085 C 311.710 16.442,312.016 16.700,312.049 16.658 C 312.082 16.617,311.803 16.326,311.429 16.010 L 310.750 15.438 311.369 16.085 M339.740 16.708 L 339.250 17.250 339.792 16.760 C 340.297 16.304,340.410 16.167,340.281 16.167 C 340.252 16.167,340.009 16.410,339.740 16.708 M148.573 17.542 L 148.083 18.083 148.625 17.594 C 148.923 17.325,149.167 17.081,149.167 17.052 C 149.167 16.923,149.029 17.037,148.573 17.542 M109.581 50.833 C 109.581 65.087,109.601 70.919,109.625 63.792 C 109.649 56.665,109.649 45.002,109.625 37.875 C 109.601 30.748,109.581 36.579,109.581 50.833 M314.558 26.833 C 314.558 27.613,314.587 27.931,314.622 27.542 C 314.657 27.152,314.657 26.515,314.622 26.125 C 314.587 25.735,314.558 26.054,314.558 26.833 M287.042 27.624 C 287.660 27.656,288.673 27.656,289.292 27.624 C 289.910 27.592,289.404 27.565,288.167 27.565 C 286.929 27.565,286.423 27.592,287.042 27.624 M358.542 27.624 C 359.527 27.654,361.140 27.654,362.125 27.624 C 363.110 27.595,362.304 27.571,360.333 27.571 C 358.363 27.571,357.556 27.595,358.542 27.624 M263.066 30.333 C 263.066 31.662,263.092 32.206,263.124 31.542 C 263.155 30.877,263.155 29.790,263.124 29.125 C 263.092 28.460,263.066 29.004,263.066 30.333 M291.667 28.052 C 291.667 28.081,291.910 28.325,292.208 28.594 L 292.750 29.083 292.260 28.542 C 291.804 28.037,291.667 27.923,291.667 28.052 M366.248 64.417 C 366.248 82.842,366.268 90.404,366.292 81.222 C 366.315 72.039,366.315 56.964,366.292 47.722 C 366.268 38.479,366.248 45.992,366.248 64.417 M332.082 66.583 C 332.082 86.017,332.101 93.942,332.125 84.195 C 332.149 74.448,332.149 58.548,332.125 48.862 C 332.101 39.175,332.082 47.150,332.082 66.583 M179.288 35.454 C 179.584 35.490,180.109 35.491,180.455 35.455 C 180.800 35.419,180.558 35.389,179.917 35.388 C 179.275 35.387,178.992 35.417,179.288 35.454 M262.890 47.917 C 262.891 48.650,262.920 48.929,262.956 48.537 C 262.991 48.145,262.990 47.545,262.954 47.204 C 262.919 46.863,262.890 47.183,262.890 47.917 M268.875 49.292 C 271.052 49.318,274.615 49.318,276.792 49.292 C 278.969 49.265,277.188 49.244,272.833 49.244 C 268.479 49.244,266.698 49.265,268.875 49.292 M314.576 56.750 C 314.576 60.692,314.598 62.280,314.625 60.280 C 314.651 58.280,314.651 55.055,314.625 53.114 C 314.598 51.172,314.576 52.808,314.576 56.750 M155.872 59.667 C 155.872 59.987,155.906 60.119,155.948 59.958 C 155.990 59.798,155.990 59.535,155.948 59.375 C 155.906 59.215,155.872 59.346,155.872 59.667 M224.073 61.875 L 223.583 62.417 224.125 61.927 C 224.630 61.471,224.743 61.333,224.615 61.333 C 224.586 61.333,224.342 61.577,224.073 61.875 M292.158 61.958 L 291.583 62.583 292.208 62.009 C 292.552 61.693,292.833 61.412,292.833 61.384 C 292.833 61.257,292.692 61.377,292.158 61.958 M125.205 62.167 C 125.205 62.487,125.240 62.619,125.282 62.458 C 125.323 62.298,125.323 62.035,125.282 61.875 C 125.240 61.715,125.205 61.846,125.205 62.167 M150.392 65.167 C 150.392 65.946,150.420 66.265,150.455 65.875 C 150.490 65.485,150.490 64.848,150.455 64.458 C 150.420 64.069,150.392 64.387,150.392 65.167 M203.054 66.958 C 206.613 66.983,212.388 66.983,215.887 66.958 C 219.387 66.933,216.475 66.913,209.417 66.913 C 202.358 66.913,199.495 66.933,203.054 66.958 M125.205 68.333 C 125.205 68.654,125.240 68.785,125.282 68.625 C 125.323 68.465,125.323 68.202,125.282 68.042 C 125.240 67.881,125.205 68.012,125.205 68.333 M310.824 71.958 L 310.250 72.583 310.875 72.009 C 311.219 71.693,311.500 71.412,311.500 71.384 C 311.500 71.257,311.359 71.377,310.824 71.958 M109.581 97.333 C 109.581 108.654,109.601 113.285,109.625 107.625 C 109.649 101.965,109.649 92.702,109.625 87.042 C 109.601 81.381,109.581 86.013,109.581 97.333 M164.583 79.000 C 165.128 79.550,165.610 80.000,165.656 80.000 C 165.702 80.000,165.294 79.550,164.750 79.000 C 164.206 78.450,163.723 78.000,163.677 78.000 C 163.631 78.000,164.039 78.450,164.583 79.000 M154.500 80.647 C 154.500 80.851,153.122 82.369,148.586 87.162 C 145.175 90.767,144.338 91.659,140.990 95.250 C 139.025 97.358,137.332 99.174,137.229 99.284 C 137.125 99.394,136.979 99.431,136.905 99.367 C 136.140 98.702,139.881 102.898,141.407 104.417 C 155.021 117.964,174.026 123.048,193.625 118.384 L 194.000 118.294 194.000 104.899 L 194.000 91.504 193.292 91.827 C 178.856 98.395,162.673 93.984,155.103 81.417 C 154.772 80.867,154.501 80.520,154.500 80.647 M159.833 85.583 C 160.331 86.087,160.776 86.500,160.822 86.500 C 160.868 86.500,160.498 86.087,160.000 85.583 C 159.502 85.079,159.057 84.667,159.011 84.667 C 158.966 84.667,159.335 85.079,159.833 85.583 M184.549 87.624 C 185.264 87.655,186.389 87.655,187.049 87.624 C 187.710 87.592,187.125 87.566,185.750 87.567 C 184.375 87.567,183.835 87.593,184.549 87.624 M262.413 103.250 C 262.413 111.317,262.433 114.641,262.458 110.638 C 262.483 106.634,262.483 100.034,262.458 95.971 C 262.433 91.908,262.413 95.183,262.413 103.250 M181.375 93.782 C 181.535 93.823,181.798 93.823,181.958 93.782 C 182.119 93.740,181.987 93.705,181.667 93.705 C 181.346 93.705,181.215 93.740,181.375 93.782 M314.734 99.666 C 314.627 99.773,309.263 99.847,299.659 99.875 L 284.750 99.918 299.688 99.959 C 312.796 99.995,314.651 99.969,314.833 99.750 C 315.065 99.471,314.992 99.408,314.734 99.666 M364.740 100.208 L 364.250 100.750 364.792 100.260 C 365.297 99.804,365.410 99.667,365.281 99.667 C 365.252 99.667,365.009 99.910,364.740 100.208 M358.634 101.124 C 359.578 101.154,361.078 101.154,361.967 101.124 C 362.856 101.094,362.083 101.070,360.250 101.070 C 358.417 101.070,357.689 101.095,358.634 101.124 M314.577 109.500 C 314.577 114.129,314.599 116.023,314.625 113.708 C 314.651 111.394,314.651 107.606,314.625 105.292 C 314.599 102.977,314.577 104.871,314.577 109.500 M337.417 111.833 C 337.775 112.200,338.105 112.500,338.151 112.500 C 338.197 112.500,337.941 112.200,337.583 111.833 C 337.225 111.467,336.895 111.167,336.849 111.167 C 336.803 111.167,337.059 111.467,337.417 111.833 M355.708 117.958 C 358.252 117.984,362.415 117.984,364.958 117.958 C 367.502 117.932,365.421 117.911,360.333 117.911 C 355.246 117.911,353.165 117.932,355.708 117.958 " stroke="none" fill="#53a323" fill-rule="evenodd"></path><path id="path4" d="M178.917 3.582 C 165.643 5.605,152.410 12.399,145.658 20.657 L 144.917 21.563 146.643 20.260 C 159.325 10.683,176.107 7.182,192.942 10.603 C 195.671 11.157,195.306 11.360,197.469 8.093 L 199.297 5.332 198.837 4.945 C 197.142 3.519,184.848 2.677,178.917 3.582 M356.500 5.529 C 351.629 5.740,348.857 7.011,345.195 10.714 L 343.806 12.118 345.778 11.733 C 348.867 11.130,351.456 11.000,360.342 11.000 C 375.397 11.000,377.624 11.514,383.303 16.298 C 383.798 16.715,384.249 16.980,384.326 16.897 C 384.806 16.380,389.333 10.466,389.333 10.355 C 389.333 10.122,385.915 7.855,384.546 7.180 C 383.034 6.433,381.319 5.930,379.333 5.651 C 377.749 5.428,360.912 5.337,356.500 5.529 M11.886 5.875 C 11.492 6.311,8.627 9.984,8.440 10.292 C 8.339 10.458,10.834 10.500,20.698 10.499 L 33.083 10.499 34.917 8.137 C 35.925 6.839,36.775 5.714,36.806 5.638 C 36.836 5.562,31.318 5.500,24.543 5.500 L 12.225 5.500 11.886 5.875 M54.992 7.292 C 54.228 8.277,53.345 9.402,53.031 9.792 L 52.460 10.500 64.889 10.500 L 77.318 10.500 79.034 8.299 C 79.978 7.089,80.848 5.964,80.968 5.799 C 81.177 5.512,80.687 5.500,68.784 5.500 L 56.382 5.500 54.992 7.292 M89.250 7.863 C 88.242 9.161,87.392 10.286,87.361 10.362 C 87.234 10.678,110.238 10.525,110.437 10.208 C 110.538 10.048,111.381 8.954,112.310 7.777 C 113.240 6.601,114.000 5.607,114.000 5.569 C 114.000 5.531,108.844 5.500,102.542 5.501 L 91.083 5.501 89.250 7.863 M283.417 5.673 C 280.647 5.975,276.735 7.997,274.125 10.474 C 272.718 11.810,272.897 11.967,275.256 11.465 C 277.266 11.037,292.722 10.717,297.952 10.995 C 303.909 11.312,308.067 12.870,311.459 16.057 C 311.787 16.366,312.057 16.504,312.144 16.408 C 312.583 15.922,316.333 10.949,316.333 10.852 C 316.333 10.597,314.276 8.641,313.375 8.039 C 311.118 6.531,308.801 5.977,303.490 5.675 C 300.033 5.478,285.211 5.477,283.417 5.673 M284.667 12.173 C 273.050 12.327,270.409 13.219,266.712 18.235 C 263.424 22.695,263.032 25.164,263.010 41.542 L 263.000 49.167 271.833 49.203 C 276.692 49.223,281.135 49.241,281.708 49.244 L 282.750 49.250 282.833 40.583 C 282.927 30.808,282.964 30.520,284.330 28.710 C 285.168 27.601,285.687 27.458,288.583 27.536 C 292.016 27.628,293.062 28.477,293.665 31.660 C 293.911 32.955,293.892 59.015,293.645 59.840 C 293.134 61.546,291.912 62.542,287.000 65.254 C 282.364 67.815,275.133 71.912,273.675 72.805 C 269.135 75.585,265.007 80.875,263.053 86.417 L 262.583 87.750 262.538 102.792 L 262.493 117.833 288.497 117.833 L 314.500 117.833 314.500 109.500 L 314.500 101.167 298.479 101.167 L 282.458 101.167 282.551 96.792 C 282.740 87.948,282.290 88.432,299.083 79.036 C 311.132 72.295,311.790 71.798,313.492 68.149 C 314.536 65.912,314.507 66.546,314.547 44.838 L 314.583 25.083 314.206 23.667 C 312.065 15.625,305.610 11.829,294.425 12.034 C 293.412 12.052,289.021 12.115,284.667 12.173 M348.443 12.338 C 341.624 13.514,335.376 19.768,332.798 28.000 L 332.250 29.750 332.206 65.996 C 332.163 101.419,332.170 102.272,332.486 103.524 C 334.167 110.172,341.208 116.286,348.654 117.564 C 350.919 117.952,369.525 117.965,371.770 117.579 C 379.448 116.260,386.261 110.353,388.106 103.417 C 388.590 101.598,388.590 31.707,388.106 29.500 C 386.359 21.527,380.582 14.804,373.667 12.695 L 372.250 12.263 360.750 12.231 C 354.425 12.213,348.887 12.261,348.443 12.338 M364.176 27.667 C 364.923 27.874,365.568 28.541,365.952 29.502 C 366.301 30.379,366.514 96.888,366.171 98.140 C 365.526 100.497,364.220 101.162,360.250 101.158 C 356.785 101.155,356.773 101.152,355.663 100.100 C 354.182 98.697,354.324 102.663,354.373 64.044 L 354.417 29.917 354.779 29.250 C 355.678 27.593,355.920 27.517,360.250 27.508 C 362.083 27.505,363.850 27.576,364.176 27.667 M198.888 36.674 C 197.712 38.145,196.725 39.420,196.694 39.508 C 196.629 39.696,242.990 39.728,243.255 39.539 C 243.390 39.443,246.826 35.180,247.552 34.208 C 247.676 34.042,243.011 34.000,224.367 34.000 L 201.027 34.000 198.888 36.674 M156.511 49.057 C 146.184 63.392,152.650 85.054,169.250 91.737 C 176.962 94.841,187.838 94.162,193.875 90.199 L 194.500 89.789 194.500 88.133 C 194.500 86.634,194.472 86.486,194.208 86.565 C 194.048 86.614,192.829 86.861,191.500 87.115 C 169.734 91.273,151.444 71.795,156.820 50.181 C 157.431 47.724,157.442 47.764,156.511 49.057 M223.606 62.500 L 222.506 63.667 210.795 63.669 C 204.353 63.671,199.005 63.727,198.909 63.794 C 198.813 63.862,198.225 64.573,197.603 65.375 L 196.472 66.833 209.371 66.833 L 222.270 66.833 224.385 64.180 C 226.844 61.096,226.742 61.333,225.604 61.333 C 224.710 61.333,224.704 61.337,223.606 62.500 M288.310 95.542 C 287.555 96.481,286.458 97.831,285.871 98.542 L 284.805 99.833 299.725 99.833 L 314.646 99.833 316.455 97.625 C 317.450 96.410,318.551 95.060,318.902 94.625 L 319.540 93.833 304.612 93.833 L 289.683 93.833 288.310 95.542 " stroke="none" fill="#f5f5f5" fill-rule="evenodd"></path></g></svg>