<?xml version="1.0" encoding="UTF-8" standalone="no"?>
<!-- Created with Inkscape (http://www.inkscape.org/) -->

<svg
   xmlns:dc="http://purl.org/dc/elements/1.1/"
   xmlns:cc="http://creativecommons.org/ns#"
   xmlns:rdf="http://www.w3.org/1999/02/22-rdf-syntax-ns#"
   xmlns:svg="http://www.w3.org/2000/svg"
   xmlns="http://www.w3.org/2000/svg"
   xmlns:sodipodi="http://sodipodi.sourceforge.net/DTD/sodipodi-0.dtd"
   xmlns:inkscape="http://www.inkscape.org/namespaces/inkscape"
   version="1.1"
   id="svg2"
   xml:space="preserve"
   width="721.58142"
   height="167.07811"
   viewBox="0 0 721.58142 167.07811"
   sodipodi:docname="atari_logo.svg"
   inkscape:version="0.92.2 5c3e80d, 2017-08-06"><metadata
     id="metadata8"><rdf:RDF><cc:Work
         rdf:about=""><dc:format>image/svg+xml</dc:format><dc:type
           rdf:resource="http://purl.org/dc/dcmitype/StillImage" /><dc:title></dc:title></cc:Work></rdf:RDF></metadata><defs
     id="defs6" /><sodipodi:namedview
     pagecolor="#ffffff"
     bordercolor="#666666"
     borderopacity="1"
     objecttolerance="10"
     gridtolerance="10"
     guidetolerance="10"
     inkscape:pageopacity="0"
     inkscape:pageshadow="2"
     inkscape:window-width="1183"
     inkscape:window-height="714"
     id="namedview4"
     showgrid="false"
     inkscape:zoom="1.9965501"
     inkscape:cx="74.686903"
     inkscape:cy="70.689092"
     inkscape:window-x="0"
     inkscape:window-y="0"
     inkscape:window-maximized="0"
     inkscape:current-layer="g10"
     inkscape:lockguides="true"
     fit-margin-top="0"
     fit-margin-left="0"
     fit-margin-right="0"
     fit-margin-bottom="0" /><g
     id="g10"
     inkscape:groupmode="layer"
     inkscape:label="ink_ext_XXXXXX"
     transform="matrix(1.3333333,0,0,-1.3333333,1.0677083,167.07812)"><g
       id="g950"><g
         id="g942"><path
           style="fill:#b9b9b9;fill-opacity:1;fill-rule:evenodd;stroke:none;stroke-width:0.75px;stroke-linecap:butt;stroke-linejoin:miter;stroke-opacity:1"
           d="m 48.289044,124.38085 -0.465382,-43.24089 -1.87824,-13.147679 -2.253881,-7.888607 -3.38084,-7.51296 -6.76166,-12.396388 -7.51296,-6.761663 -7.13731,-7.888605 L 7.6293307,21.036281 -0.05078125,18.705078 V 0.974598 l 6.92882195,0.903638 11.2694403,2.629537 12.77202,7.137307 9.01556,7.888613 9.391196,13.89897 6.01037,15.025921 1.87824,13.52333 0.37564,15.401566 v 27.04665 l 0.36846,19.84916 z"
           id="path923-9"
           inkscape:connector-curvature="0" /><path
           style="fill:#b9b9b9;fill-rule:evenodd;stroke:none;stroke-width:0.75px;stroke-linecap:butt;stroke-linejoin:miter;stroke-opacity:1;fill-opacity:1"
           d="m 91.894534,124.38086 0.465382,-43.240893 1.87824,-13.147679 2.253885,-7.888607 3.380835,-7.51296 6.761664,-12.396386 7.51296,-6.761662 7.13731,-7.888606 11.26944,-4.507777 7.68011,-2.331203 V 0.97460668 l -6.92882,0.90363752 -11.26944,2.6295376 -12.77202,7.1373072 -9.01556,7.888613 -9.391199,13.898971 -6.010365,15.02592 -1.87824,13.523328 -0.375645,15.401566 v 27.046653 l -0.36846,19.84916 z"
           id="path923"
           inkscape:connector-curvature="0" /></g><path
         inkscape:connector-curvature="0"
         id="path944"
         d="M 63.513672,123.70898 H 76.443356 V 2.0234367 H 63.513672 Z"
         style="fill:#b9b9b9;fill-rule:evenodd;stroke:none;stroke-width:0.75px;stroke-linecap:butt;stroke-linejoin:miter;stroke-opacity:1;fill-opacity:1" /></g><path
       style="color:#000000;font-style:normal;font-variant:normal;font-weight:normal;font-stretch:normal;font-size:medium;line-height:normal;font-family:sans-serif;font-variant-ligatures:normal;font-variant-position:normal;font-variant-caps:normal;font-variant-numeric:normal;font-variant-alternates:normal;font-feature-settings:normal;text-indent:0;text-align:start;text-decoration:none;text-decoration-line:none;text-decoration-style:solid;text-decoration-color:#000000;letter-spacing:normal;word-spacing:normal;text-transform:none;writing-mode:lr-tb;direction:ltr;text-orientation:mixed;dominant-baseline:auto;baseline-shift:baseline;text-anchor:start;white-space:normal;shape-padding:0;clip-rule:nonzero;display:inline;overflow:visible;visibility:visible;opacity:1;isolation:auto;mix-blend-mode:normal;color-interpolation:sRGB;color-interpolation-filters:linearRGB;solid-color:#000000;solid-opacity:1;vector-effect:none;fill:#000000;fill-opacity:1;fill-rule:nonzero;stroke:none;stroke-width:1.5;stroke-linecap:butt;stroke-linejoin:miter;stroke-miterlimit:4;stroke-dasharray:none;stroke-dashoffset:0;stroke-opacity:1;color-rendering:auto;image-rendering:auto;shape-rendering:auto;text-rendering:auto;enable-background:accumulate"
       d="M 63.513672,2.0234375 V 123.70898 H 76.443359 V 2.0234375 Z M 61.914062,0.42382812 H 78.042969 V 125.30859 H 61.914062 V 1.2226562 1.1738281 Z"
       id="path14"
       inkscape:connector-curvature="0" /><path
       style="color:#000000;font-style:normal;font-variant:normal;font-weight:normal;font-stretch:normal;font-size:medium;line-height:normal;font-family:sans-serif;font-variant-ligatures:normal;font-variant-position:normal;font-variant-caps:normal;font-variant-numeric:normal;font-variant-alternates:normal;font-feature-settings:normal;text-indent:0;text-align:start;text-decoration:none;text-decoration-line:none;text-decoration-style:solid;text-decoration-color:#000000;letter-spacing:normal;word-spacing:normal;text-transform:none;writing-mode:lr-tb;direction:ltr;text-orientation:mixed;dominant-baseline:auto;baseline-shift:baseline;text-anchor:start;white-space:normal;shape-padding:0;clip-rule:nonzero;display:inline;overflow:visible;visibility:visible;opacity:1;isolation:auto;mix-blend-mode:normal;color-interpolation:sRGB;color-interpolation-filters:linearRGB;solid-color:#000000;solid-opacity:1;vector-effect:none;fill:#000000;fill-opacity:1;fill-rule:nonzero;stroke:#000000;stroke-width:1.5;stroke-linecap:butt;stroke-linejoin:miter;stroke-miterlimit:4;stroke-dasharray:none;stroke-dashoffset:0;stroke-opacity:1;color-rendering:auto;image-rendering:auto;shape-rendering:auto;text-rendering:auto;enable-background:accumulate"
       d="M 2.4179688,0.90625 0,0.92382812 v 0.0507813 H -0.05078125 V 18.705078 l 0.04101562,0.0078 C 27.32075,23.751592 48.289062,52.867939 48.289062,88.042969 v 36.337891 h 9.771485 V 71.107422 C 58.060547,32.843621 33.261822,1.7031999 2.4179688,0.90625 Z m -0.00195,0.1015625 C 33.194003,1.8030606 57.960937,32.886823 57.960938,71.107422 V 124.2793 H 48.390625 V 88.042969 c 0,-35.196935 -20.971112,-64.34857 -48.33984375,-69.419922 V 1.0234375 Z"
       id="path16"
       inkscape:connector-curvature="0" /><path
       style="color:#000000;font-style:normal;font-variant:normal;font-weight:normal;font-stretch:normal;font-size:medium;line-height:normal;font-family:sans-serif;font-variant-ligatures:normal;font-variant-position:normal;font-variant-caps:normal;font-variant-numeric:normal;font-variant-alternates:normal;font-feature-settings:normal;text-indent:0;text-align:start;text-decoration:none;text-decoration-line:none;text-decoration-style:solid;text-decoration-color:#000000;letter-spacing:normal;word-spacing:normal;text-transform:none;writing-mode:lr-tb;direction:ltr;text-orientation:mixed;dominant-baseline:auto;baseline-shift:baseline;text-anchor:start;white-space:normal;shape-padding:0;clip-rule:nonzero;display:inline;overflow:visible;visibility:visible;opacity:1;isolation:auto;mix-blend-mode:normal;color-interpolation:sRGB;color-interpolation-filters:linearRGB;solid-color:#000000;solid-opacity:1;vector-effect:none;fill:#000000;fill-opacity:1;fill-rule:nonzero;stroke:#000000;stroke-width:1.5;stroke-linecap:butt;stroke-linejoin:miter;stroke-miterlimit:4;stroke-dasharray:none;stroke-dashoffset:0;stroke-opacity:1;color-rendering:auto;image-rendering:auto;shape-rendering:auto;text-rendering:auto;enable-background:accumulate"
       d="M 137.76562,0.90625 C 106.92269,1.7032 82.125,32.843621 82.125,71.107422 v 53.273438 h 9.769531 V 88.042969 c 0,-35.17503 20.968109,-64.291377 48.298829,-69.330078 l 0.041,-0.0078 V 0.97460938 h -0.0508 v -0.0507813 z m 0,0.1015625 2.36915,0.015625 V 18.623047 C 112.76583,23.694391 91.794922,52.846028 91.794922,88.042969 V 124.2793 H 82.224609 V 71.107422 c 0,-38.219786 24.764861,-69.3030899 55.541011,-70.0996095 z"
       id="path18"
       inkscape:connector-curvature="0" /><path
       inkscape:connector-curvature="0"
       id="path20"
       style="fill:#4e89a8;fill-opacity:1;fill-rule:nonzero;stroke:none;stroke-width:0.1"
       d="M 261.152,0.592969 H 233.959 L 227.247,23.9141 H 190.621 L 183.552,0.592969 H 156.353 L 190.258,109.136 c 1.331,4.211 3.446,7.715 6.35,10.525 3.38,3.154 7.253,4.734 11.601,4.734 4.835,0 9.189,-1.699 13.056,-5.085 3.386,-3.041 5.804,-6.896 7.253,-11.576 z M 219.994,46.5398 209.118,99.4949 197.148,46.5398 h 22.846" /><path
       inkscape:connector-curvature="0"
       id="path22"
       style="fill:#4e89a8;fill-opacity:1;fill-rule:nonzero;stroke:none;stroke-width:0.1"
       d="M 323.386,100.505 H 299.637 V 0 h -26.653 v 100.505 h -23.938 v 23.148 h 74.34 v -23.148" /><path
       inkscape:connector-curvature="0"
       id="path24"
       style="fill:#4e89a8;fill-opacity:1;fill-rule:nonzero;stroke:none;stroke-width:0.1"
       d="M 416.781,0.592969 H 389.587 L 382.875,23.9141 H 346.249 L 339.18,0.592969 h -27.2 L 345.886,109.136 c 1.331,4.211 3.446,7.715 6.35,10.525 3.38,3.154 7.253,4.734 11.601,4.734 4.835,0 9.189,-1.699 13.056,-5.085 3.386,-3.041 5.804,-6.896 7.253,-11.576 z M 375.622,46.5398 364.746,99.4949 352.777,46.5398 h 22.845" /><path
       inkscape:connector-curvature="0"
       id="path26"
       style="fill:#4e89a8;fill-opacity:1;fill-rule:nonzero;stroke:none;stroke-width:0.1"
       d="M 510.181,0.255859 H 479.359 L 452.029,50.4246 c -1.213,2.334 -2.21,4.4434 -2.994,6.3145 -0.785,1.8652 -1.176,3.3261 -1.176,4.3836 0,5.3753 4.317,9.7886 12.96,13.2339 8.643,3.4512 12.968,7.7457 12.968,12.8899 0,3.1605 -1.243,6.2547 -3.719,9.2957 -2.477,3.0359 -5.168,4.5568 -8.072,4.5568 H 446.765 V 0.592969 H 421.021 V 107.763 c 0,3.742 1.753,7.366 5.258,10.871 3.504,3.51 7.009,5.262 10.518,5.262 h 25.929 c 10.033,0 18.795,-3.505 26.291,-10.519 7.489,-7.016 11.238,-15.1418 11.238,-24.3782 0,-7.3656 -2.293,-13.7925 -6.89,-19.2871 -3.987,-4.7933 -9.731,-8.8867 -17.227,-12.2715 L 510.181,0.255859" /><path
       inkscape:connector-curvature="0"
       id="path28"
       style="fill:#4e89a8;fill-opacity:1;fill-rule:nonzero;stroke:none;stroke-width:0.1"
       d="m 513.554,0.0648438 h 26.8313 V 123.89584 H 513.554 Z" /></g></svg>