<svg id="svg" version="1.1" xmlns="http://www.w3.org/2000/svg" xmlns:xlink="http://www.w3.org/1999/xlink" width="400" height="70.1195219123506" viewBox="0, 0, 400,70.1195219123506"><g id="svgg"><path id="path0" d="M35.060 34.661 L 35.060 67.463 39.044 67.463 L 43.028 67.463 43.028 34.661 L 43.028 1.859 39.044 1.859 L 35.060 1.859 35.060 34.661 M110.951 2.135 C 108.061 2.621,105.306 4.823,103.856 7.807 C 103.122 9.316,84.993 66.808,84.993 67.625 C 84.993 67.932,86.232 67.995,92.297 67.995 C 96.315 67.995,99.602 67.946,99.602 67.887 C 99.602 67.754,102.387 58.520,102.954 56.770 L 103.365 55.505 112.957 55.574 L 122.549 55.644 124.308 61.753 L 126.068 67.862 133.419 67.932 C 137.462 67.971,140.770 67.919,140.770 67.817 C 140.770 67.035,123.021 9.644,122.396 8.406 C 120.529 4.707,115.216 1.262,112.351 1.892 C 112.278 1.909,111.648 2.018,110.951 2.135 M193.546 2.136 C 190.984 2.567,188.254 4.635,186.726 7.304 C 186.057 8.473,167.596 66.725,167.596 67.668 C 167.596 67.918,169.298 67.995,174.880 67.995 L 182.163 67.995 182.433 67.131 C 182.582 66.657,183.315 64.236,184.064 61.753 C 184.812 59.270,185.546 56.849,185.694 56.375 L 185.964 55.511 195.572 55.512 L 205.179 55.512 206.355 59.695 C 207.002 61.996,207.814 64.804,208.158 65.936 L 208.785 67.995 216.108 67.995 L 223.431 67.995 223.250 67.264 C 222.966 66.119,206.188 11.164,205.717 9.839 C 204.171 5.483,198.307 1.154,194.954 1.892 C 194.880 1.909,194.247 2.018,193.546 2.136 M27.617 11.753 C 27.610 21.926,27.377 26.490,26.690 29.914 C 23.941 43.599,15.227 54.288,4.232 57.461 L 1.992 58.108 1.919 62.959 L 1.847 67.810 4.177 67.639 C 16.763 66.715,27.697 56.474,31.354 42.185 C 32.747 36.745,32.729 37.018,32.855 19.057 L 32.973 2.125 30.298 2.125 L 27.623 2.125 27.617 11.753 M45.425 17.065 C 45.434 35.349,45.640 37.917,47.601 44.090 C 51.991 57.909,63.456 67.729,75.201 67.729 L 76.494 67.729 76.492 62.882 L 76.490 58.035 74.652 57.591 C 64.702 55.193,55.803 45.379,52.467 33.127 C 51.153 28.303,50.999 26.278,50.998 13.745 L 50.996 2.125 48.207 2.125 L 45.418 2.125 45.425 17.065 M232.391 2.472 C 230.720 2.943,229.537 3.726,227.927 5.429 C 225.277 8.231,225.498 5.210,225.498 38.667 L 225.498 67.995 232.404 67.995 L 239.309 67.995 239.309 41.301 L 239.309 14.608 243.700 14.608 C 248.722 14.608,249.224 14.740,250.907 16.504 C 255.352 21.159,253.824 25.338,246.509 28.531 C 242.194 30.415,240.074 32.396,239.699 34.892 C 239.430 36.688,240.377 38.696,248.642 53.851 L 256.355 67.995 264.714 67.995 C 269.311 67.995,273.022 67.905,272.960 67.795 C 272.897 67.686,268.886 60.941,264.046 52.807 C 259.206 44.673,255.246 37.920,255.247 37.800 C 255.247 37.681,256.054 37.166,257.039 36.657 C 272.970 28.423,270.418 7.617,252.893 2.866 C 250.325 2.170,234.539 1.866,232.391 2.472 M274.635 35.193 L 274.635 68.260 281.806 68.260 L 288.977 68.260 288.977 35.193 L 288.977 2.125 281.806 2.125 L 274.635 2.125 274.635 35.193 M324.967 2.491 C 310.166 4.932,302.680 16.166,307.070 29.349 C 309.469 36.552,313.164 39.611,323.915 43.297 C 333.852 46.704,335.972 49.111,331.143 51.504 C 326.390 53.860,318.808 53.315,311.155 50.068 C 309.695 49.448,308.109 48.855,307.632 48.751 L 306.765 48.562 306.835 56.085 L 306.906 63.609 309.819 64.484 C 333.337 71.547,351.222 64.161,351.162 47.410 C 351.125 37.205,346.699 32.201,334.235 28.276 C 326.487 25.836,324.313 24.022,325.083 20.644 C 326.366 15.023,336.527 13.995,345.186 18.611 C 346.811 19.477,348.277 20.186,348.443 20.186 C 348.665 20.186,348.728 18.169,348.676 12.683 L 348.606 5.179 345.684 4.194 C 340.289 2.374,330.537 1.573,324.967 2.491 M134.130 8.632 L 134.130 14.874 140.505 14.874 L 146.879 14.874 146.879 41.567 L 146.879 68.260 154.050 68.260 L 161.222 68.260 161.222 41.567 L 161.222 14.874 167.463 14.874 L 173.705 14.874 173.705 8.632 L 173.705 2.390 153.918 2.390 L 134.130 2.390 134.130 8.632 M351.926 11.819 L 351.926 19.389 358.566 19.389 L 365.206 19.389 365.206 43.692 L 365.206 67.995 375.166 67.995 L 385.126 67.995 385.126 43.692 L 385.126 19.389 391.633 19.389 L 398.141 19.389 398.141 11.819 L 398.141 4.250 375.033 4.250 L 351.926 4.250 351.926 11.819 M118.413 43.163 C 118.336 43.240,115.707 43.272,112.572 43.232 L 106.872 43.161 109.942 29.571 L 113.011 15.981 115.783 29.501 C 117.308 36.937,118.491 43.085,118.413 43.163 M198.271 28.818 C 199.683 35.684,200.936 41.750,201.055 42.297 L 201.272 43.293 195.372 43.293 L 189.472 43.293 192.534 29.759 C 194.218 22.315,195.620 16.249,195.649 16.279 C 195.679 16.310,196.859 21.952,198.271 28.818 " stroke="none" fill="#000000" fill-rule="evenodd"></path></g></svg>