<svg id="svg" version="1.1" xmlns="http://www.w3.org/2000/svg" xmlns:xlink="http://www.w3.org/1999/xlink" width="400" height="133.20000000000002" viewBox="0, 0, 400,133.20000000000002"><g id="svgg"><path id="path0" d="M0.000 30.800 L 0.000 61.600 6.600 61.600 L 13.200 61.600 13.200 30.800 L 13.200 0.000 6.600 0.000 L 0.000 0.000 0.000 30.800 M16.400 6.566 L 16.400 13.200 21.040 13.200 C 27.567 13.200,30.000 14.657,30.000 18.567 C 30.000 22.678,27.888 23.996,21.300 23.999 L 16.400 24.000 16.400 30.800 L 16.400 37.600 21.127 37.600 C 34.417 37.600,42.321 31.475,43.423 20.320 C 44.587 8.537,36.376 0.357,23.100 0.075 L 16.400 -0.067 16.400 6.566 M47.200 30.800 L 47.200 61.600 53.800 61.600 L 60.400 61.600 60.400 30.800 L 60.400 0.000 53.800 0.000 L 47.200 0.000 47.200 30.800 M86.800 30.800 L 86.800 61.600 93.400 61.600 L 100.000 61.600 100.000 30.800 L 100.000 0.000 93.400 0.000 L 86.800 0.000 86.800 30.800 M107.200 30.800 L 107.200 61.600 113.800 61.600 L 120.400 61.600 120.400 30.800 L 120.400 0.000 113.800 0.000 L 107.200 0.000 107.200 30.800 M127.200 30.800 L 127.200 61.600 134.000 61.600 L 140.800 61.600 140.800 30.800 L 140.800 0.000 134.000 0.000 L 127.200 0.000 127.200 30.800 M165.600 30.800 L 165.600 61.600 172.200 61.600 L 178.800 61.600 178.800 30.800 L 178.800 0.000 172.200 0.000 L 165.600 0.000 165.600 30.800 M186.400 30.800 L 186.400 61.600 193.000 61.600 L 199.600 61.600 199.600 30.800 L 199.600 0.000 193.000 0.000 L 186.400 0.000 186.400 30.800 M203.200 6.566 L 203.200 13.200 207.820 13.200 C 213.873 13.200,215.785 14.217,216.573 17.859 C 217.437 21.852,214.852 23.767,208.369 23.932 L 203.200 24.064 203.200 30.832 L 203.200 37.600 208.300 37.577 C 216.321 37.541,221.107 35.813,224.944 31.568 C 233.580 22.012,230.843 7.419,219.348 1.734 L 216.246 0.200 209.723 0.066 L 203.200 -0.069 203.200 6.566 M245.400 0.561 C 229.347 5.651,229.610 30.895,245.743 33.464 L 247.000 33.665 249.700 28.229 C 252.938 21.709,252.900 22.202,250.226 21.425 C 246.842 20.441,245.530 17.946,246.862 15.024 C 248.626 11.152,254.800 12.518,254.800 16.780 C 254.800 17.574,255.012 17.600,261.600 17.600 C 269.316 17.600,268.744 17.926,267.992 13.956 C 266.049 3.710,255.393 -2.608,245.400 0.561 M64.800 30.600 L 64.800 37.200 73.200 37.200 L 81.600 37.200 81.600 30.600 L 81.600 24.000 73.200 24.000 L 64.800 24.000 64.800 30.600 M256.045 30.090 C 254.420 33.211,253.250 35.818,253.445 35.883 C 259.153 37.812,259.569 45.666,254.092 48.089 C 250.416 49.715,246.296 47.670,245.223 43.685 L 244.769 42.000 238.360 42.000 L 231.951 42.000 232.212 43.900 C 234.139 57.924,247.858 65.470,260.326 59.364 C 273.858 52.736,274.815 33.018,261.963 25.648 C 259.035 23.969,259.361 23.724,256.045 30.090 M145.200 54.800 L 145.200 61.600 153.600 61.600 L 162.000 61.600 162.000 54.800 L 162.000 48.000 153.600 48.000 L 145.200 48.000 145.200 54.800 M313.079 72.300 L 309.281 79.800 315.944 92.800 L 322.608 105.800 319.191 105.914 L 315.775 106.028 312.489 112.614 L 309.203 119.200 319.334 119.200 L 329.465 119.200 332.232 124.593 L 335.000 129.987 343.100 129.993 C 347.555 129.997,351.200 129.890,351.200 129.754 C 351.200 128.698,318.092 64.824,317.539 64.813 C 317.078 64.804,315.728 67.069,313.079 72.300 M215.000 66.239 C 200.776 69.405,189.200 82.953,189.200 96.435 L 189.200 97.600 196.129 97.600 L 203.059 97.600 203.509 95.181 C 207.354 74.502,237.608 74.842,240.738 95.600 L 241.009 97.400 248.068 97.509 L 255.126 97.618 254.946 95.909 C 252.799 75.580,234.408 61.920,215.000 66.239 M367.600 66.222 C 332.117 73.837,333.996 126.845,369.900 131.111 L 372.800 131.455 372.800 124.328 L 372.800 117.200 371.863 117.200 C 368.827 117.200,363.450 114.285,360.564 111.076 C 350.860 100.282,356.469 82.934,370.612 79.997 L 372.800 79.543 372.800 72.572 L 372.800 65.600 371.500 65.632 C 370.785 65.649,369.030 65.915,367.600 66.222 M376.000 72.490 L 376.000 79.490 378.226 79.937 C 381.603 80.615,385.680 82.948,388.149 85.615 L 390.288 87.924 395.144 83.056 C 400.882 77.304,400.729 77.994,397.045 74.495 C 392.059 69.759,385.025 66.412,378.700 65.765 L 376.000 65.490 376.000 72.490 M0.000 68.778 C 0.000 70.125,32.774 133.012,33.536 133.126 C 34.261 133.235,34.882 132.240,38.051 125.892 L 41.725 118.530 28.962 93.476 L 16.200 68.422 8.100 68.411 C 3.273 68.404,0.000 68.553,0.000 68.778 M43.039 83.902 L 35.079 99.400 39.039 107.126 C 41.218 111.376,43.118 114.931,43.263 115.027 C 43.494 115.181,67.200 69.242,67.200 68.639 C 67.200 68.508,63.555 68.401,59.100 68.402 L 51.000 68.403 43.039 83.902 M68.400 99.200 L 68.400 130.000 75.000 130.000 L 81.600 130.000 81.600 99.200 L 81.600 68.400 75.000 68.400 L 68.400 68.400 68.400 99.200 M86.800 99.200 L 86.800 130.000 93.400 130.000 L 100.000 130.000 100.000 99.200 L 100.000 68.400 93.400 68.400 L 86.800 68.400 86.800 99.200 M103.600 75.000 L 103.600 81.600 107.745 81.600 C 121.245 81.600,130.079 90.348,128.121 101.777 C 126.512 111.172,119.997 116.227,108.900 116.692 L 103.600 116.913 103.600 123.509 L 103.600 130.104 110.100 129.884 C 128.990 129.247,141.600 116.963,141.600 99.200 C 141.600 81.072,128.259 68.431,109.100 68.407 L 103.600 68.400 103.600 75.000 M145.200 99.200 L 145.200 130.000 151.800 130.000 L 158.400 130.000 158.400 99.200 L 158.400 68.400 151.800 68.400 L 145.200 68.400 145.200 99.200 M161.600 75.000 L 161.600 81.600 174.200 81.600 L 186.800 81.600 186.800 75.000 L 186.800 68.400 174.200 68.400 L 161.600 68.400 161.600 75.000 M257.600 99.200 L 257.600 130.000 264.200 130.000 L 270.800 130.000 270.800 99.200 L 270.800 68.400 264.200 68.400 L 257.600 68.400 257.600 99.200 M274.400 74.967 L 274.400 81.533 279.172 81.667 C 285.342 81.839,287.709 83.373,287.709 87.200 C 287.709 91.027,285.342 92.561,279.172 92.733 L 274.400 92.867 274.400 99.433 L 274.400 106.000 279.700 105.990 C 292.887 105.966,301.200 98.700,301.200 87.200 C 301.200 75.683,292.906 68.434,279.700 68.410 L 274.400 68.400 274.400 74.967 M307.063 84.100 C 306.758 84.595,303.490 90.940,299.801 98.200 C 296.112 105.460,290.941 115.589,288.309 120.708 L 283.524 130.016 291.820 129.908 L 300.116 129.800 308.015 114.411 L 315.915 99.022 311.955 91.111 C 307.644 82.496,307.861 82.807,307.063 84.100 M161.600 99.200 L 161.600 106.000 174.200 106.000 L 186.800 106.000 186.800 99.200 L 186.800 92.400 174.200 92.400 L 161.600 92.400 161.600 99.200 M189.375 102.691 C 192.933 127.983,221.996 140.013,242.325 124.608 C 248.848 119.665,254.800 108.944,254.800 102.136 L 254.800 100.800 247.835 100.800 L 240.870 100.800 240.596 102.425 C 237.368 121.531,208.694 122.053,203.845 103.094 L 203.309 101.000 196.208 100.891 L 189.106 100.781 189.375 102.691 M387.964 111.560 C 385.384 114.238,381.004 116.639,377.964 117.042 L 376.000 117.303 376.000 124.413 L 376.000 131.524 377.700 131.337 C 384.180 130.626,391.187 127.629,396.000 123.508 C 400.979 119.245,401.003 119.618,395.383 113.983 C 389.802 108.388,390.729 108.691,387.964 111.560 M161.600 123.400 L 161.600 130.000 174.200 130.000 L 186.800 130.000 186.800 123.400 L 186.800 116.800 174.200 116.800 L 161.600 116.800 161.600 123.400 " stroke="none" fill="#000000" fill-rule="evenodd"></path></g></svg>