<svg xmlns="http://www.w3.org/2000/svg" xmlns:xlink="http://www.w3.org/1999/xlink" height="800" width="1200" viewBox="-109.83075 -62.2455 951.8665 373.473"><defs><linearGradient id="b"><stop offset="0" stop-color="red"/><stop offset="1" stop-color="#fc0"/></linearGradient><linearGradient id="a"><stop offset="0" stop-color="red"/><stop offset="1" stop-color="#fc0"/></linearGradient><linearGradient gradientTransform="translate(-298.804 -797.774) scale(1.94463)" gradientUnits="userSpaceOnUse" y2="889.505" x2="335" y1="838.076" x1="336.429" id="d" xlink:href="#a"/><linearGradient gradientTransform="translate(-298.804 -797.774) scale(1.94463)" gradientUnits="userSpaceOnUse" y2="889.505" x2="335" y1="838.076" x1="336.429" id="c" xlink:href="#b"/></defs><g fill-rule="evenodd"><path d="M600.15 877.062l-15.19.056-234.397 173.28h-14.585L20.323 851.768c-13.191-8.794-19.48-32.295-2.083-32.295h67.715l228.494 208.7-182.657-175.71h34.031l22.92 23.266h7.292l-24.308-30.212H124.5l-25.35-25.35h70.493c15.217-.88 23.852 7.304 29.864 16.322l135.43 208.006-86.467-166.336c-10.899 0-14.888-1.497-20.14-9.375l-28.476-48.963h36.115l12.327 25.87c3.282 7.94 11.145 6.955 7.466-1.91l-10.07-24.308h34.726l14.237 54.172c1.439 4.48-7.606 3.473-13.89 3.473l57.644 164.946-35.767-164.252h45.49v-6.25H301.6l-7.292-30.212c-1.568-13.327-.721-21.53 12.154-21.53h82.994l-5.21 25.003h-54.865v7.292h53.13l-40.63 193.421 44.45-168.071h39.934l2.43-6.598h-42.712l10.418-37.504c4.506-10.2 9.601-12.506 19.446-13.542h71.187l-16.494 25.35h-48.616l-1.91 7.639h45.664L346.396 1043.8l152.619-224.153h79.695l-24.655 25.176h-38.546l-2.257 4.861H548.5l-23.093 22.92-31.774-.174-3.993 5.556h30.558l-170.502 168.071 200.887-169.634h-8.16c-7.008 0-2.654-8.173.347-12.675l45.838-44.796h29.515l-28.648 27.607c-7.876 8.273 6.482 9.218 16.668 1.042l31.947-27.78h31.948L605.1 874.687c-1.9 2.135-3.653 2.32-4.952 2.375z" fill="url(#c)" transform="translate(-7.601 -801.416)"/><path d="M53.178 43.58l40.455 32.47h14.932L71.408 43.407z" fill="#fff"/><path d="M718.196 810.496l-23.85.296 10.938-9.376h24.655c12.835 0 11.749 3.226 4.688 11.807-6.444 7.345-13.811 8.547-22.05 10.07H697.47l-6.424 6.598h20.488l-9.55 10.591h-37.677l26.218-24.829h20.662c12.536 0 13.34-5.157 7.008-5.157z" fill="url(#d)" transform="translate(-7.601 -801.416)"/></g></svg>