<?xml version="1.0" encoding="utf-8"?>
<!-- Generator: Adobe Illustrator 16.0.0, SVG Export Plug-In . SVG Version: 6.00 Build 0)  -->
<!DOCTYPE svg PUBLIC "-//W3C//DTD SVG 1.1//EN" "http://www.w3.org/Graphics/SVG/1.1/DTD/svg11.dtd">
<svg version="1.1" id="Layer_1" xmlns="http://www.w3.org/2000/svg" xmlns:xlink="http://www.w3.org/1999/xlink" x="0px" y="0px"
	 width="1116px" height="560px" viewBox="0 0 1116 560" enable-background="new 0 0 1116 560" xml:space="preserve">
<g>
	<path fill="#0090AA" d="M169.97,23.99l48.23,53.96c-0.07,21.62,0.02,43.24-0.05,64.85c-22.99,0-45.98-0.01-68.97,0.01
		c-0.02-15.56,0.02-31.12-0.02-46.68c-18.18-0.01-36.36,0.03-54.54-0.02c-0.04,25.58-0.08,51.15,0.02,76.73
		c5.45-0.01,10.9,0.13,16.36,0.15c-0.03,22.88,0.06,45.77-0.05,68.65c-13.25-0.11-26.51,0.02-39.76-0.05
		c-1.51,0.07-2.39-1.47-3.42-2.33c-15.8-16.53-32.03-32.7-47.65-49.38c-0.29-36.64-0.02-73.3-0.13-109.95l49.28-55.87L169.97,23.99z
		"/>
	<path fill="#0090AA" d="M244.03,348.62C243.95,240.41,244.02,132.21,244,24c24.67,0,49.33,0,74,0
		c0.03,103.23-0.05,206.47,0.04,309.7c6.88-0.04,13.76-0.11,20.64,0.06c-0.06,23.42-0.04,46.84-0.01,70.26
		c-12.57,0.24-25.15,0.06-37.73,0.11c-1.47,0.24-2.62-0.56-3.53-1.6L244.03,348.62z"/>
	<path fill="#0090AA" d="M377,24c24.67,0,49.33,0,74,0c-0.08,108.29,0.16,216.6-0.12,324.88c-17.69,18.64-36.09,36.66-53.99,55.11
		c-13.1,0.04-26.19,0.02-39.29,0.01c-0.03-23.36-0.04-46.72,0.01-70.08c6.46-0.05,12.92-0.03,19.38-0.02
		C377.02,230.6,376.99,127.3,377,24z"/>
	<path fill="#0090AA" d="M475,24c24.67,0,49.33,0,74,0c0,126.67,0,253.33,0,380c-24.67,0-49.33,0-74,0C475,277.33,475,150.67,475,24
		z"/>
	<path fill="#0090AA" d="M621.83,24.02c17.9,17.85,36.05,35.46,53.92,53.33v144.3c-17.87,17.87-36.02,35.49-53.92,53.33
		c-17.61,0.04-35.22,0.01-52.83,0.02c0-24,0-48,0-72c10.67,0,21.33,0,32,0c0-35.67,0-71.33,0-107c-10.67,0-21.33,0-32,0
		c0-24,0-48,0-72L621.83,24.02z"/>
	<path fill="#0090AA" d="M700,24c54.33,0,108.67,0,163,0c0,24,0,48,0,72c-29.67,0-59.33,0-89,0c0,78.67,0,157.33,0,236
		c29.67,0,59.33,0,89,0c0,24,0,48,0,72c-54.33,0-108.67,0-163,0C700,277.33,700,150.67,700,24z"/>
	<path fill="#0090AA" d="M888,24c24.67,0,49.33,0,74,0c0,126.67,0,253.33,0,380c-24.67,0-49.33,0-74,0C888,277.33,888,150.67,888,24
		z"/>
	<path fill="#0090AA" d="M1047.18,215.15c14.79,15.1,30.101,29.74,44.68,45.02c0.32,47.93,0.05,95.89,0.14,143.83c-25,0-50,0-75,0
		c0-50.67,0-101.33,0-152c-12.34,0-24.67,0-37,0c0-24,0-48,0-72c12.33,0,24.66,0,37,0c0-28,0-56,0-84c-12.34,0-24.67,0-37,0
		c0-24,0-48,0-72l57.82,0.02l54.16,54.99c0.06,29.68-0.01,59.37,0.03,89.06L1047.18,215.15z"/>
	<path fill="#0090AA" d="M794,168c18,0,36,0,54,0c0,24,0,48,0,72c-18,0-36,0-54,0C794,216,794,192,794,168z"/>
	<path fill="#0090AA" d="M168.73,403.94l-100.7,0.07L19.8,350.05c0.07-21.62-0.02-43.24,0.05-64.86c22.99,0.01,45.98,0.02,68.97,0
		c0.02,15.56-0.02,31.12,0.02,46.68c18.18,0.01,36.36-0.03,54.54,0.02l-0.02-89.73c-4.12-0.01-8.24-0.03-12.35-0.15
		c0.01-22.89-0.07-45.77,0.04-68.65c11.92,0.11,23.84-0.02,35.76,0.05c1.28-0.14,2.05,1.11,2.92,1.82
		c15.72,16.27,31.5,32.47,47.23,48.71c0.86,0.8,1.2,1.79,1.04,2.98c0,40.38-0.01,80.77,0.01,121.15L168.73,403.94z"/>
	<path fill="#0090AA" d="M304,548c-37.67,0-75.34,0-113.02,0c-7.41,0.07-15.06-2.3-20.46-7.52c-3.6-3.47-5.72-8.4-5.52-13.41
		c0.02-22.38-0.04-44.76,0.03-67.14c-0.04-8.08,6.26-14.75,13.44-17.57c5.19-2.29,10.95-2.48,16.53-2.37
		c36.33,0.02,72.67,0,109,0.01c0,6.66,0,13.33,0,20c-38,0-76,0-114,0c0,22.67,0,45.33,0,68c29.67,0,59.33,0,89,0c0-8,0-16,0-24
		c-14.33,0-28.67,0-43,0c0-6.67,0-13.33,0-20c22.67,0,45.33,0,68,0V548z"/>
	<g>
		<path fill="#0090AA" d="M328,440c36.35,0,72.71,0,109.06,0c9.18-0.1,19.24,3.73,23.87,12.1c2.67,4.5,2,9.9,2.07,14.91
			c-0.12,6.29,0.23,12.6-0.17,18.89c-0.79,7.6-7.09,13.41-13.93,16c-7.33,2.99-15.37,1.89-23.07,2.1l39.16,43.97l-30.96,0.04
			c-13.08-14.66-26.19-29.29-39.21-44L353,504v44h-25V440z M353,460c0,8,0,16,0,24c28.33,0,56.67,0,85,0c0-8,0-16,0-24
			C409.67,460,381.33,460,353,460z"/>
	</g>
	<path fill="#0090AA" d="M603.01,548c-14.45-29.3-29.01-58.55-43.33-87.91h-11.36C534,489.45,519.44,518.7,504.99,548l-28.98-0.02
		c17.74-35.98,35.58-71.9,53.23-107.92h49.51c17.66,36.02,35.5,71.94,53.24,107.92L603.01,548z"/>
	<path fill="#0090AA" d="M644,440c42.33,0,84.67,0,127,0c0,6.67,0,13.33,0,20c-34,0-68,0-102,0c0,8,0,16,0,24c29.67,0,59.33,0,89,0
		c0,6.67,0,13.33,0,20c-29.67,0-59.33,0-89,0c0,14.67,0,29.33,0,44c-8.34,0-16.67,0-25,0C644,512,644,476,644,440z"/>
	<path fill="#0090AA" d="M931.81,547.93l-36.69-0.05c-13.3-12.42-26-25.52-39.12-38.14c-13.12,12.62-25.82,25.71-39.12,38.14
		l-36.68,0.05l56.3-57.3c-17.03-16.92-34.32-33.59-51.3-50.56l36.82-0.03L856,473.32c11.49-10.94,22.49-22.43,34.13-33.2l36.67-0.05
		c-17.12,17.18-34.71,33.92-51.78,51.14L931.81,547.93z"/>
</g>
</svg>
